<?xml version="1.0" encoding="utf-8"?>
<!-- Generator: Adobe Illustrator 21.0.0, SVG Export Plug-In . SVG Version: 6.00 Build 0)  -->
<svg version="1.1" xmlns="http://www.w3.org/2000/svg" xmlns:xlink="http://www.w3.org/1999/xlink" x="0px" y="0px"
	 viewBox="0 0 394 549" style="enable-background:new 0 0 394 549;" xml:space="preserve">
<style type="text/css">
	.st0{fill:#E0D5BD;}
	.st1{fill:#F5CECC;}
	.st2{fill:#CCCCCC;}
	.st3{opacity:0.55;clip-path:url(#XMLID_123_);fill:#3C3729;}
	.st4{opacity:0.45;clip-path:url(#XMLID_130_);fill:#F9F5ED;}
	.st5{fill:#F9F5ED;}
	.st6{fill:#599B69;}
	.st7{fill:#616D72;}
	.st8{fill:#AA7E52;}
	.st9{fill:none;stroke:#020100;stroke-miterlimit:10;}
	.st10{fill:none;stroke:#020202;stroke-miterlimit:10;}
	.st11{fill:none;stroke:#000000;stroke-miterlimit:10;}
	.st12{fill:#A2A8AA;}
	.st13{fill:#F9F5ED;stroke:#000000;stroke-width:2;stroke-miterlimit:10;}
	.st14{fill:#99918A;}
	.st15{fill:none;stroke:#000000;stroke-width:2;stroke-miterlimit:10;}
	.st16{fill:#C6C1BA;}
	.st17{opacity:7.000000e-02;}
	.st18{opacity:0.1;}
	.st19{fill:#A5A5A5;}
	.st20{fill:#BC926F;}
	.st21{fill:#263135;}
	.st22{opacity:5.000000e-02;}
	.st23{opacity:0.55;clip-path:url(#XMLID_131_);fill:#F9F5ED;}
	.st24{opacity:0.6;clip-path:url(#XMLID_131_);fill:#F9F5ED;}
	.st25{fill:#F9F5ED;stroke:#020202;stroke-miterlimit:10;}
	.st26{clip-path:url(#SVGID_2_);fill:#599B69;}
	.st27{fill:#C4C4C4;}
	.st28{fill:#AA9977;}
	.st29{fill:#F9F5ED;stroke:#000000;stroke-miterlimit:10;}
	.st30{clip-path:url(#XMLID_132_);fill:#AA7E52;}
	.st31{opacity:7.000000e-02;clip-path:url(#XMLID_132_);}
	.st32{fill:none;stroke:#917F60;stroke-miterlimit:10;}
	.st33{clip-path:url(#SVGID_4_);fill:#3C3729;}
	.st34{fill:#3C3729;}
	.st35{display:none;fill:#F9F5ED;}
	.st36{opacity:5.000000e-02;clip-path:url(#SVGID_6_);}
	.st37{fill:#B84200;}
	.st38{fill:#393C3D;}
	.st39{opacity:0.55;clip-path:url(#XMLID_133_);fill:#1B1D1E;}
	.st40{fill:#E0605C;}
	.st41{fill:#323435;}
	.st42{opacity:0.55;clip-path:url(#XMLID_134_);fill:#1B1D1E;}
	.st43{fill:#6B6B6B;}
	.st44{fill:#C1B49A;}
	.st45{fill:#93673E;}
	.st46{fill:#512D20;}
	.st47{fill:#DBB6AB;}
	.st48{fill:#FFFFFF;}
	.st49{fill:#FFAD5C;}
	.st50{fill:none;stroke:#C6C1BA;stroke-width:3;stroke-linecap:round;stroke-miterlimit:10;}
	.st51{fill:#E04E57;}
	.st52{fill:#DC8328;}
	.st53{fill:#32717C;}
	.st54{fill:#825831;}
	.st55{fill:#6B4627;}
	.st56{fill:#D44A37;}
	.st57{fill:#515151;}
	.st58{fill:#3A3A3A;}
	.st59{fill:#D5CFB9;}
	.st60{fill:#AA6742;}
	.st61{fill:#C77F51;}
	.st62{fill:#995533;}
	.st63{fill:#D7D9DD;}
	.st64{fill:#130D0C;}
	.st65{fill:#E1DED1;}
	.st66{fill:#D8CBCA;}
	.st67{fill:#4F3019;}
	.st68{fill:#BC9173;}
	.st69{opacity:0.55;clip-path:url(#XMLID_135_);fill:#B7845A;}
	.st70{opacity:0.45;clip-path:url(#XMLID_136_);fill:#B7845A;}
	.st71{opacity:0.55;clip-path:url(#XMLID_137_);fill:#B7845A;}
	.st72{opacity:0.6;clip-path:url(#XMLID_137_);fill:#FFE5D2;}
	.st73{opacity:0.55;clip-path:url(#XMLID_138_);fill:#B7845A;}
	.st74{opacity:0.6;clip-path:url(#XMLID_138_);fill:#FFE5D2;}
	.st75{fill:#AF8261;}
	.st76{opacity:0.55;clip-path:url(#XMLID_139_);fill:#B7845A;}
	.st77{opacity:0.6;clip-path:url(#XMLID_139_);fill:#FFE5D2;}
	.st78{opacity:0.55;clip-path:url(#XMLID_140_);fill:#B7845A;}
	.st79{opacity:0.6;clip-path:url(#XMLID_140_);fill:#FFE5D2;}
	.st80{fill:#C19370;}
	.st81{opacity:0.55;clip-path:url(#XMLID_141_);fill:#1B1D1E;}
	.st82{fill:#DDB58E;stroke:#442815;stroke-miterlimit:10;}
	.st83{fill:#BC926F;stroke:#442815;stroke-miterlimit:10;}
	.st84{fill:#F2F2F2;}
	.st85{fill:#E6E6E6;}
	.st86{fill:#FF8F9B;}
	.st87{fill:none;stroke:#F2F2F2;stroke-width:1.1663;stroke-linecap:round;stroke-miterlimit:10;}
	.st88{fill:#29ABE2;}
	.st89{fill:none;stroke:#1A1A1A;stroke-width:1.1663;stroke-linecap:round;stroke-miterlimit:10;}
	.st90{fill:#1A1A1A;}
	.st91{opacity:0.22;clip-path:url(#XMLID_142_);fill:#878787;}
	.st92{clip-path:url(#XMLID_143_);fill:#6B4627;}
	.st93{opacity:0.22;clip-path:url(#XMLID_143_);fill:#878787;}
	.st94{fill:#DDB58E;}
	.st95{fill:#47565B;}
	.st96{fill:#E6E7E8;}
	.st97{fill:#231F20;}
	.st98{fill:#594A42;}
	.st99{fill:#606060;}
	.st100{clip-path:url(#XMLID_148_);}
	.st101{fill:#847D77;}
	.st102{clip-path:url(#XMLID_149_);fill:#606060;}
	.st103{opacity:0.55;clip-path:url(#XMLID_150_);fill:#B7845A;}
	.st104{opacity:0.45;clip-path:url(#XMLID_163_);fill:#B7845A;}
	.st105{opacity:0.55;clip-path:url(#XMLID_164_);fill:#B7845A;}
	.st106{opacity:0.6;clip-path:url(#XMLID_164_);fill:#FFE5D2;}
	.st107{opacity:0.55;clip-path:url(#XMLID_165_);fill:#B7845A;}
	.st108{opacity:0.6;clip-path:url(#XMLID_165_);fill:#FFE5D2;}
	.st109{opacity:0.55;clip-path:url(#XMLID_166_);fill:#B7845A;}
	.st110{opacity:0.6;clip-path:url(#XMLID_166_);fill:#FFE5D2;}
	.st111{opacity:0.55;clip-path:url(#XMLID_167_);fill:#B7845A;}
	.st112{opacity:0.6;clip-path:url(#XMLID_167_);fill:#FFE5D2;}
	.st113{opacity:0.55;clip-path:url(#XMLID_168_);fill:#1B1D1E;}
	.st114{opacity:0.22;clip-path:url(#XMLID_169_);fill:#878787;}
	.st115{clip-path:url(#XMLID_170_);fill:#6B4627;}
	.st116{opacity:0.22;clip-path:url(#XMLID_170_);fill:#878787;}
	.st117{clip-path:url(#XMLID_172_);}
	.st118{clip-path:url(#XMLID_173_);fill:#606060;}
	.st119{opacity:0.55;clip-path:url(#XMLID_174_);fill:#3C3729;}
	.st120{opacity:0.45;clip-path:url(#XMLID_175_);fill:#F9F5ED;}
	.st121{opacity:0.55;clip-path:url(#XMLID_176_);fill:#F9F5ED;}
	.st122{opacity:0.6;clip-path:url(#XMLID_176_);fill:#F9F5ED;}
	.st123{opacity:0.55;clip-path:url(#XMLID_177_);fill:#1B1D1E;}
	.st124{opacity:0.22;clip-path:url(#XMLID_178_);fill:#878787;}
	.st125{clip-path:url(#XMLID_179_);fill:#6B4627;}
	.st126{opacity:0.22;clip-path:url(#XMLID_179_);fill:#878787;}
	.st127{clip-path:url(#XMLID_181_);}
	.st128{clip-path:url(#XMLID_182_);fill:#606060;}
	.st129{clip-path:url(#SVGID_8_);fill:#3C3729;}
	.st130{fill:#393C3D;stroke:#FFFFFF;stroke-miterlimit:10;}
	.st131{fill:#FFFFFF;stroke:#000000;stroke-width:1.5735;stroke-linecap:round;stroke-linejoin:round;}
	.st132{fill:#ECBE67;stroke:#000000;stroke-width:1.5735;stroke-linecap:round;stroke-linejoin:round;}
	.st133{fill:#DD5662;}
	.st134{fill:#31323C;}
	.st135{fill:none;stroke:#000000;stroke-width:1.5735;stroke-linecap:round;stroke-linejoin:round;}
	.st136{opacity:0.55;clip-path:url(#XMLID_183_);fill:#3C3729;}
	.st137{opacity:0.45;clip-path:url(#XMLID_184_);fill:#F9F5ED;}
	.st138{opacity:0.1;clip-path:url(#XMLID_185_);}
	.st139{opacity:5.000000e-02;clip-path:url(#XMLID_185_);}
	.st140{opacity:0.55;clip-path:url(#XMLID_185_);fill:#F9F5ED;}
	.st141{opacity:0.55;clip-path:url(#XMLID_187_);fill:#1B1D1E;}
	.st142{clip-path:url(#SVGID_10_);fill:#3C3729;}
	.st143{fill:#9B6730;}
	.st144{opacity:0.55;clip-path:url(#XMLID_188_);fill:#1B1D1E;}
	.st145{opacity:0.1;clip-path:url(#XMLID_189_);}
	.st146{opacity:5.000000e-02;clip-path:url(#XMLID_189_);}
	.st147{opacity:0.55;clip-path:url(#XMLID_189_);fill:#F9F5ED;}
	.st148{clip-path:url(#SVGID_12_);fill:#3C3729;}
	.st149{opacity:0.55;clip-path:url(#XMLID_190_);fill:#3C3729;}
	.st150{opacity:0.45;clip-path:url(#XMLID_191_);fill:#F9F5ED;}
</style>
<g id="black">
</g>
<g id="tailFur">
	<g>
		<defs>
			<path id="XMLID_50_" d="M368.9,373.6c-16.1-63.9-97.3-32.8-97.3-32.8l1.6,16.8c1.1-0.6,13.8-3.5,26.7-1.8
				c12.4,1.7,24.9,7.6,27.7,23.8c2.6,14.9-0.1,23.3-5,27.9c4.6-0.2,8.4,0.9,0.5,7.4c0,0,16.2-5.4,3.5,4.1c0,0,17.4,1.9,0.2,5.6
				c0,0,17.1,1.4,3.9,5.4c0,0,8.7-0.7,7.8,3.4C359.2,427.1,377.1,406.2,368.9,373.6z"/>
		</defs>
		<use xlink:href="#XMLID_50_"  style="overflow:visible;fill:#3C3729;"/>
		<clipPath id="XMLID_123_">
			<use xlink:href="#XMLID_50_"  style="overflow:visible;"/>
		</clipPath>
		<path class="st3" d="M300.7,358.9c0,0,5.2-10.4,0.9-21.7c0,0,77.2-8.2,62.4,65.9c-3.5,17.3-26.4,30-45.1,27.7
			c-16.4-2-29.1-13.3-30.3-23.4c0,0-8.7,5.2-1.7,17.3s34.7,34.7,53.7,26c19.1-8.7,38.1-20.8,43.3-41.6s8.7-69.3-12.1-83.2
			c-20.8-13.9-57.2-19.1-64.1-13.9c-6.9,5.2-16.5,10.7-16.9,16.6s-0.4,26.7,1.3,28.5S300.7,358.9,300.7,358.9z"/>
	</g>
	<g>
		<defs>
			<path id="XMLID_49_" d="M330.7,430.1c13.2-4.1-3.9-5.4-3.9-5.4c17.2-3.7-0.2-5.6-0.2-5.6c12.7-9.5-3.5-4.1-3.5-4.1
				c7.9-6.5,4.1-7.6-0.5-7.4c-10.4,9.8-30.6,2-30.6,2c4.3,22.9,26.7,30,46.5,23.9C339.5,429.4,330.7,430.1,330.7,430.1z"/>
		</defs>
		<use xlink:href="#XMLID_49_"  style="overflow:visible;fill:#F9F5ED;"/>
		<clipPath id="XMLID_130_">
			<use xlink:href="#XMLID_49_"  style="overflow:visible;"/>
		</clipPath>
		<path class="st4" d="M344,424.8c0,0-8.7,10.4-26,5.2c-17.3-5.2-21.7-14.7-28.6-21.7c-6.9-6.9-7.8,9.5-0.9,18.2
			s29.5,27.7,38.1,24.3c8.7-3.5,15.6-3.5,19.1-8.7C349.2,436.9,344,424.8,344,424.8z"/>
	</g>
</g>
<g id="tail">
	<path class="st9" d="M368.9,373.6c-16.1-63.9-97.3-32.8-97.3-32.8l1.6,16.8c1.1-0.6,13.8-3.5,26.7-1.8c12.4,1.7,24.9,7.6,27.7,23.8
		c2.6,14.9-0.1,23.3-5,27.9c-10.4,9.8-30.6,2-30.6,2c4.3,22.9,26.7,30,46.5,23.9C359.2,427.1,377.1,406.2,368.9,373.6z"/>
</g>
<g id="earfur">
</g>
<g id="ear">
	<path id="XMLID_46_" class="st13" d="M127.3,149.8c0,0,4.4-66,14.6-66.8c10.3-0.8,24.2,56.3,24.2,56.3L127.3,149.8z"/>
	<g>
		<path class="st14" d="M135.3,145.7c0,0,5.8-48.9,8.1-49.1c2.3-0.3,14.4,41,14.4,41L135.3,145.7z"/>
	</g>
	<path id="XMLID_44_" class="st13" d="M247,149.8c0,0-4.4-66-14.6-66.8c-10.3-0.8-24.2,56.3-24.2,56.3L247,149.8z"/>
	<g>
		<path class="st14" d="M239,145.7c0,0-5.8-48.9-8.1-49.1c-2.3-0.3-14.4,41-14.4,41L239,145.7z"/>
	</g>
</g>
<g id="bodyFur">
	<g id="bodufur">
		<g>
			<ellipse class="st2" cx="186.9" cy="453.1" rx="113" ry="14.3"/>
		</g>
		<g>
			<g>
				<path class="st16" d="M171.7,346v-21.3H132c-3.6-0.9-7-1.5-10.1-2c1.4,5.7,3,11.5,4.6,17.4c3.3,12.2,6.7,24.8,8.9,37.2
					c2.1,11.3,3.7,23.8,5.4,35.8c2.1,16,4,28.8,6.1,38.2h23.8c1.1-6.8,1.9-15.8,3-27.2c0.2-1.9,0.4-3.9,0.6-6
					c2.7-29.5,3.2-61.6,3.3-72.1H171.7z"/>
			</g>
			<g>
				<path class="st16" d="M242.3,324.7h-39.7V346h-5.7c0.1,10.5,0.6,42.6,3.3,72.1c0.2,2.1,0.4,4.1,0.6,6c1,11.4,1.9,20.4,3,27.2
					h23.8c2.2-9.3,4-22.2,6.1-38.2c1.6-12,3.3-24.5,5.4-35.8c2.3-12.3,5.7-25,8.9-37.2c1.6-5.9,3.1-11.7,4.6-17.4
					C249.3,323.2,245.9,323.9,242.3,324.7z"/>
			</g>
		</g>
		<g class="st17">
			<path d="M267.5,177.5c0,0-6.3-4.8-8.9-10.3c-2.6-5.5-13.4-37.7-70.5-37.7c-1.9,0-3.7,0-5.5,0.1c52.3,2,62.5,32.2,65,37.6
				c2.6,5.5,8.9,10.3,8.9,10.3c-3.1,1.1-11.1-0.9-11.1-0.9c0.4,5.5,7.8,13.1,7.8,13.1s-6.3,4.7-4.8,10.9c5.1,20.6,3.5,47.9,3.1,57.3
				s2.6,23.5,2.6,23.5c-4.8-2.6-6.1-5.4-6.1-5.4c0.2,5.9,3.1,16.3,3.1,16.3c-3.1-2.4-4.8-3.7-4.8-3.7c-1.5,26.9-13.9,58.5-19.6,89.2
				c-6,32.7-8.6,74.9-15.9,86.8c1.7,2.4,3.9,3.4,7,3.2c10.5-0.7,12.9-51.8,19.9-90c5.6-30.7,18-62.4,19.6-89.2c0,0,1.7,1.3,4.8,3.7
				c0,0-3-10.3-3.1-16.3c0,0,1.3,2.8,6.1,5.4c0,0-3-14-2.6-23.5s1.9-36.7-3.1-57.3c-1.5-6.2,4.8-10.9,4.8-10.9s-7.4-7.6-7.8-13.1
				C256.4,176.6,264.4,178.6,267.5,177.5z"/>
		</g>
		<g class="st18">
			<path class="st19" d="M265.4,175.2c0,0.4,0.1,0.7,0.2,1.1c0.3-0.1,0.6-0.1,0.9-0.2C266.5,176,266.1,175.7,265.4,175.2z"/>
			<path class="st19" d="M118.9,175.2c1.9-1.6,5.9-5.3,7.8-9.5c2.5-5.4,12.8-35.8,65.5-37.6c-1.6-0.1-3.3-0.1-5-0.1
				c-57.1,0-67.9,32.2-70.5,37.7c-2.6,5.5-8.9,10.3-8.9,10.3C110.9,177.2,118.9,175.1,118.9,175.2
				C118.9,175.1,118.9,175.1,118.9,175.2z"/>
			<path class="st5" d="M147.5,376.4c-5.6-30.7-18-62.4-19.6-89.2c0,0-1.7,1.3-4.8,3.7c0,0,3-10.3,3.1-16.3c0,0-1.3,2.8-6.1,5.4
				c0,0,3-14,2.6-23.5c-0.4-9.4-1.9-36.7,3.1-57.3c1.5-6.2-4.8-10.9-4.8-10.9s7.4-7.6,7.8-13.1c0,0-6.6,1.7-10.2,1.1
				c-1.2,5.4-7.6,12-7.6,12s6.3,4.7,4.8,10.9c-5.1,20.6-3.5,47.9-3.1,57.3c0.4,9.4-2.6,23.5-2.6,23.5c4.8-2.6,6.1-5.4,6.1-5.4
				c-0.2,5.9-3.1,16.3-3.1,16.3c3.1-2.4,4.8-3.7,4.8-3.7c1.5,26.9,13.9,58.5,19.6,89.2c7,38.2,9.4,89.3,19.9,90
				c2.7,0.2,4.8-0.6,6.4-2.5C156.3,453.1,153.6,409.8,147.5,376.4z"/>
		</g>
		<path class="st5" d="M257.3,433.3c0,0,17.3-17.6,28.7-40.3c17.9-35.7,26.3-81.3-34.9-70.1c3.1-12.4,5.6-24.4,6.3-35.5
			c0,0,1.7,1.3,4.8,3.7c0,0-3-10.3-3.1-16.3c0,0,1.3,2.8,6.1,5.4c0,0-3-14-2.6-23.5s1.9-36.7-3.1-57.3c-1.5-6.2,4.8-10.9,4.8-10.9
			s-7.4-7.6-7.8-13.1c0,0,7.9,2,11.1,0.9c0,0-6.3-4.8-8.9-10.3c-2.6-5.5-13.4-37.7-70.5-37.7s-67.9,32.2-70.5,37.7
			s-8.9,10.3-8.9,10.3c3.1,1.1,11.1-0.9,11.1-0.9c-0.4,5.5-7.8,13.1-7.8,13.1s6.3,4.7,4.8,10.9c-5.1,20.6-3.5,47.9-3.1,57.3
			s-2.6,23.5-2.6,23.5c4.8-2.6,6.1-5.4,6.1-5.4c-0.2,5.9-3.1,16.3-3.1,16.3c3.1-2.4,4.8-3.7,4.8-3.7c0.6,11.1,3.1,23.1,6.3,35.5
			c-61.2-11.2-52.9,34.4-34.9,70.1c11.4,22.8,28.7,40.3,28.7,40.3c-8.7-3.3-26.4-1.1-29,9c-2.4,9.3,14.6,8.8,14.6,8.8h45.5
			c2.2,9.3,4.8,15.3,8.4,15.6c6.2,0.4,9-4.2,10.9-15.6h18.8h0H207c1.9,11.4,4.6,16,10.9,15.6c3.6-0.2,6.2-6.3,8.4-15.6h45.5
			c0,0,17,0.5,14.6-8.8C283.7,432.2,266,430,257.3,433.3z"/>
	</g>
	<g>
		<defs>
			<path id="SVGID_3_" d="M265.7,170.3c-0.9-2.3-2-4.6-3.2-6.8c-2.3-4.2-5.1-8.1-8.3-11.8c-5.6-6.4-12.4-11.9-20.2-16.3
				c-2.6-1.5-5.4-2.9-8.3-4.1c-1.6-0.7-3.3-1.4-4.9-2c-9.9-3.6-20.9-5.6-32.4-5.6c-0.2,0-0.4,0-0.6,0l0,0c-0.2,0-0.4,0-0.6,0
				c-11.5,0-22.5,2.1-32.4,5.7c-1.7,0.6-3.3,1.3-4.9,2c-2.9,1.2-5.6,2.6-8.3,4.1c-7.8,4.4-14.6,10-20.1,16.4
				c-3.2,3.7-6,7.7-8.2,11.9c-1.2,2.2-2.3,4.5-3.2,6.8c-2.7,6.7-4.1,13.9-4.1,21.4c0,6.7,2.9,16.7,8,27.6c0.1,0,0.2,0.1,0.2,0.1
				l0-0.1c0.9-0.4,1.7-0.8,2.5-1.2c0.3-0.1,0.5-0.3,0.8-0.5c0.5-0.3,1.1-0.6,1.6-1c0.3-0.2,0.6-0.4,0.9-0.6c0.5-0.3,0.9-0.7,1.4-1
				c0.3-0.2,0.6-0.5,0.8-0.7c0.4-0.4,0.8-0.7,1.3-1.1c0.3-0.3,0.5-0.5,0.8-0.8c0.4-0.4,0.8-0.8,1.2-1.2c0.3-0.3,0.5-0.6,0.7-0.8
				c0.4-0.4,0.8-0.9,1.2-1.3c0.2-0.3,0.4-0.6,0.7-0.8c0.4-0.5,0.8-1,1.2-1.5c0.2-0.2,0.4-0.5,0.6-0.7c0.4-0.5,0.8-1.1,1.2-1.7
				c0.1-0.2,0.3-0.4,0.4-0.6c0.5-0.6,0.9-1.3,1.4-1.9c0-0.1,0.1-0.1,0.1-0.2c3.1-4.5,5.9-9.1,8.9-13.3c0.1-0.1,0.1-0.1,0.2-0.2
				c0.5-0.6,0.9-1.3,1.4-1.9c0.1-0.1,0.2-0.2,0.3-0.4c0.5-0.6,0.9-1.1,1.4-1.7c0.1-0.1,0.2-0.3,0.4-0.4c0.4-0.5,0.9-1,1.4-1.5
				c0.1-0.1,0.3-0.3,0.4-0.4c0.5-0.5,0.9-0.9,1.4-1.3c0.2-0.1,0.3-0.3,0.5-0.4c0.5-0.4,0.9-0.8,1.4-1.1c0.2-0.1,0.3-0.3,0.5-0.4
				c0.5-0.3,1-0.7,1.5-1c0.2-0.1,0.4-0.2,0.6-0.3c0.5-0.3,1-0.5,1.5-0.8c0.2-0.1,0.4-0.2,0.6-0.3c0.5-0.2,1.1-0.4,1.6-0.6
				c0.2-0.1,0.4-0.1,0.6-0.2c0.6-0.2,1.1-0.3,1.7-0.4c0.2,0,0.5-0.1,0.7-0.1c0.6-0.1,1.2-0.1,1.8-0.2c0.2,0,0.5,0,0.7,0
				c0.6,0,1.3,0,1.9,0.1c0.2,0,0.5,0.1,0.7,0.1c0.7,0.1,1.4,0.2,2.1,0.3c0.3,0.1,0.5,0.1,0.8,0.2c0.7,0.2,1.5,0.4,2.2,0.6
				c0.3,0.1,0.5,0.2,0.8,0.3c0.8,0.3,1.6,0.6,2.4,1c0.2,0.1,0.5,0.2,0.7,0.4c0.9,0.4,1.8,0.8,2.7,1.3c0.2,0.1,0.4,0.3,0.7,0.4
				c1,0.5,2,1.1,3,1.7c0.2,0.1,0.3,0.2,0.5,0.3c1.1,0.7,2.2,1.5,3.4,2.3l0,0c-1.9-20.4-2.6-40.3,3.8-40.4l0,0c6.4,0,5.8,20,4,40.4
				l0,0c1.2-0.8,2.3-1.6,3.4-2.3c0.2-0.1,0.3-0.2,0.5-0.3c1-0.6,2-1.2,3-1.8c0.2-0.1,0.4-0.3,0.7-0.4c0.9-0.5,1.8-0.9,2.7-1.3
				c0.2-0.1,0.5-0.2,0.7-0.4c0.8-0.4,1.6-0.7,2.4-1c0.3-0.1,0.5-0.2,0.8-0.3c0.8-0.3,1.5-0.5,2.2-0.6c0.3-0.1,0.5-0.1,0.8-0.2
				c0.7-0.2,1.4-0.3,2.1-0.3c0.2,0,0.5-0.1,0.7-0.1c0.7-0.1,1.3-0.1,1.9-0.1c0.2,0,0.5,0,0.7,0c0.6,0,1.2,0.1,1.8,0.2
				c0.2,0,0.5,0.1,0.7,0.1c0.6,0.1,1.1,0.2,1.7,0.4c0.2,0.1,0.4,0.1,0.6,0.2c0.5,0.2,1.1,0.4,1.6,0.6c0.2,0.1,0.4,0.2,0.6,0.3
				c0.5,0.2,1,0.5,1.5,0.8c0.2,0.1,0.4,0.2,0.6,0.3c0.5,0.3,1,0.6,1.5,1c0.2,0.1,0.3,0.2,0.5,0.4c0.5,0.4,0.9,0.7,1.4,1.1
				c0.2,0.1,0.3,0.3,0.5,0.4c0.5,0.4,0.9,0.9,1.4,1.3c0.1,0.1,0.3,0.3,0.4,0.4c0.5,0.5,0.9,1,1.4,1.5c0.1,0.1,0.2,0.3,0.4,0.4
				c0.5,0.5,0.9,1.1,1.4,1.7c0.1,0.1,0.2,0.2,0.3,0.4c0.5,0.6,1,1.2,1.4,1.9c0.1,0.1,0.1,0.1,0.2,0.2c3,4.1,5.9,8.8,9,13.3
				c0,0.1,0.1,0.1,0.1,0.2c0.4,0.7,0.9,1.3,1.4,1.9c0.1,0.2,0.3,0.4,0.4,0.6c0.4,0.6,0.8,1.1,1.2,1.7c0.2,0.2,0.4,0.5,0.6,0.7
				c0.4,0.5,0.8,1,1.2,1.5c0.2,0.3,0.4,0.6,0.7,0.8c0.4,0.5,0.8,0.9,1.2,1.3c0.2,0.3,0.5,0.6,0.7,0.8c0.4,0.4,0.8,0.8,1.2,1.2
				c0.3,0.3,0.5,0.5,0.8,0.8c0.4,0.4,0.8,0.8,1.3,1.1c0.3,0.2,0.6,0.5,0.8,0.7c0.4,0.4,0.9,0.7,1.4,1c0.3,0.2,0.6,0.4,0.9,0.6
				c0.5,0.3,1,0.7,1.6,1c0.3,0.2,0.5,0.3,0.8,0.5c0.8,0.4,1.6,0.9,2.5,1.2l0,0.1c0.1,0,0.2-0.1,0.2-0.1c5.1-10.9,7.9-21,7.9-27.7
				C269.9,184.2,268.4,177,265.7,170.3z"/>
		</defs>
		<clipPath id="SVGID_2_">
			<use xlink:href="#SVGID_3_"  style="overflow:visible;"/>
		</clipPath>
		<path id="XMLID_39_" style="clip-path:url(#SVGID_2_);fill:#3C3729;" d="M176,342.5c0,0,0,39.4-3.3,75.4s-3.9,49.7-14.4,49
			c-10.5-0.7-12.9-51.8-19.9-90c-5.6-30.7-18-62.4-19.6-89.2c0,0-1.7,1.3-4.8,3.7c0,0,3-10.3,3.1-16.3c0,0-1.3,2.8-6.1,5.4
			c0,0,3-14,2.6-23.5c-0.4-9.4-1.9-36.7,3.1-57.3c1.5-6.2-4.8-10.9-4.8-10.9s7.4-7.6,7.8-13.1c0,0-7.9,2-11.1,0.9
			c0,0,6.3-4.8,8.9-10.3c2.6-5.5,13.4-37.7,70.5-37.7s67.9,32.2,70.5,37.7c2.6,5.5,8.9,10.3,8.9,10.3c-3.1,1.1-11.1-0.9-11.1-0.9
			c0.4,5.5,7.8,13.1,7.8,13.1s-6.3,4.7-4.8,10.9c5.1,20.6,3.5,47.9,3.1,57.3c-0.4,9.4,2.6,23.5,2.6,23.5c-4.8-2.6-6.1-5.4-6.1-5.4
			c0.2,5.9,3.1,16.3,3.1,16.3c-3.1-2.4-4.8-3.7-4.8-3.7c-1.5,26.9-13.9,58.5-19.6,89.2c-7,38.2-9.4,89.3-19.9,90
			c-10.5,0.7-11.1-12.9-14.4-49s-3.3-75.4-3.3-75.4"/>
	</g>
	<g>
		<g>
			<path class="st34" d="M240,365c0-4.3,0.4-7.7-1.2-9.1c-5.7-4.8-21.5-11.2-25.7-20.6c-4-8.9-3.1-17.5,2.4-24.3
				c4.4-5.4,15.7-12.7,40.5-9c-4,17-4,23-10,43C244.1,351.4,242.2,359.1,240,365z"/>
		</g>
	</g>
	<g>
		<g>
			<path class="st34" d="M136,365c-0.1-4.3-1.9-7.6-0.4-9c5.6-4.9,21.3-11.4,25.4-20.9c3.9-8.9,2.9-17.6-2.7-24.2
				c-4.5-5.4-12.7-12.8-37.4-8.9c2,16,6,32,10,43C133.3,351.4,133.8,359.2,136,365z"/>
		</g>
	</g>
	<path class="st35" d="M177,342c0-5-9-24,12-24c17,0,11,23,11,23s1,83,7,108c4,16.6,0,2,0,2h-38c0,0,9-69,7-101"/>
</g>
<g id="highlight">
	<g>
		<defs>
			<path id="SVGID_5_" d="M257.3,434.3c0,0,17.3-17.6,28.7-40.3c17.9-35.7,26.3-81.3-34.9-70.1c3.1-12.4,5.6-24.4,6.3-35.5
				c0,0,1.7,1.3,4.8,3.7c0,0-3-10.3-3.1-16.3c0,0,1.3,2.8,6.1,5.4c0,0-3-14-2.6-23.5s1.9-36.7-3.1-57.3c-1.5-6.2,4.8-10.9,4.8-10.9
				s-7.4-7.6-7.8-13.1c0,0,7.9,2,11.1,0.9c0,0-6.3-4.8-8.9-10.3c-2.6-5.5-13.4-37.7-70.5-37.7s-67.9,32.2-70.5,37.7
				s-8.9,10.3-8.9,10.3c3.1,1.1,11.1-0.9,11.1-0.9c-0.4,5.5-7.8,13.1-7.8,13.1s6.3,4.7,4.8,10.9c-5.1,20.6-3.5,47.9-3.1,57.3
				s-2.6,23.5-2.6,23.5c4.8-2.6,6.1-5.4,6.1-5.4c-0.2,5.9-3.1,16.3-3.1,16.3c3.1-2.4,4.8-3.7,4.8-3.7c0.6,11.1,3.1,23.1,6.3,35.5
				c-61.2-11.2-52.9,34.4-34.9,70.1c11.4,22.8,28.7,40.3,28.7,40.3c-8.7-3.3-26.4-1.1-29,9c-2.4,9.3,14.6,8.8,14.6,8.8h45.5
				c2.2,9.3,4.8,15.3,8.4,15.6c6.2,0.4,9-4.2,10.9-15.6h18.8h0H207c1.9,11.4,4.6,16,10.9,15.6c3.6-0.2,6.2-6.3,8.4-15.6h45.5
				c0,0,17,0.5,14.6-8.8C283.7,433.2,266,431,257.3,434.3z"/>
		</defs>
		<clipPath id="SVGID_4_">
			<use xlink:href="#SVGID_5_"  style="overflow:visible;"/>
		</clipPath>
		<path style="opacity:5.000000e-02;clip-path:url(#SVGID_4_);" d="M167,119c0,0-73,39-36,211c0,0-97.5-21.5-5,107
			c0,0-48.6,4.9-25,22c65.5,47.5,180.5-2.5,180.5-2.5s14-19-32-19c0,0,91-122-6-106c0,0,40-171-30-207c-16.3-8.4,48-6,48-6l48,289
			l-13,73c0,0-222,39-226,21s-24-96-24-96s22-176,21-185s19-111,21-112S167,119,167,119z"/>
	</g>
</g>
<g id="body">
	<path class="st11" d="M226.2,451.5h45.5c0,0,17,0.5,14.6-8.8c-2.6-10-20.3-12.3-29-9c0,0,17.3-17.6,28.7-40.3
		c17.9-35.7,26.3-81.3-34.9-70.1c3.1-12.4,5.6-24.4,6.3-35.5c0,0,1.7,1.3,4.8,3.7c0,0-3-10.3-3.1-16.3c0,0,1.3,2.8,6.1,5.4
		c0,0-3-14-2.6-23.5s1.9-36.7-3.1-57.3c-1.5-6.2,4.8-10.9,4.8-10.9s-7.4-7.6-7.8-13.1c0,0,7.9,2,11.1,0.9c0,0-6.3-4.8-8.9-10.3
		c-2.6-5.5-13.4-37.7-70.5-37.7s-67.9,32.2-70.5,37.7s-8.9,10.3-8.9,10.3c3.1,1.1,11.1-0.9,11.1-0.9c-0.4,5.5-7.8,13.1-7.8,13.1
		s6.3,4.7,4.8,10.9c-5.1,20.6-3.5,47.9-3.1,57.3s-2.6,23.5-2.6,23.5c4.8-2.6,6.1-5.4,6.1-5.4c-0.2,5.9-3.1,16.3-3.1,16.3
		c3.1-2.4,4.8-3.7,4.8-3.7c0.6,11.1,3.1,23.1,6.3,35.5c-61.2-11.2-52.9,34.4-34.9,70.1c11.4,22.8,28.7,40.3,28.7,40.3
		c-8.7-3.3-26.4-1.1-29,9c-2.4,9.3,14.6,8.8,14.6,8.8h45.5"/>
	<path class="st11" d="M169.3,451.5h18.8h0H207"/>
	<path id="XMLID_47_" class="st11" d="M251.5,323.5c-4.4,17.5-10.6,34.3-13.9,52.3c-7,38.2-9.4,89.3-19.9,90
		c-10.5,0.7-11.1-12.9-14.4-49c-3.3-36-3.3-75.4-3.3-75.4"/>
	<path id="XMLID_45_" class="st11" d="M176.1,341.5c0,0,0,39.4-3.3,75.4s-3.9,49.7-14.4,49c-10.5-0.7-12.9-51.8-19.9-90
		c-3.2-17.7-8.7-35.7-13.1-52.9"/>
</g>
<g id="mouth">
	<g>
		<g>
			<path class="st27" d="M228.2,206.1c-8.9,0.7-12.7,4.9-15.6-8.7c-2.9-13.6-25.4-13.4-25.4-13.4s-22.4-0.1-25.4,13.4
				c-2.9,13.6-6.7,9.4-15.6,8.7c-4.8-0.4-15.9,1.8-12.8,21.6c3.4,21.9,25.4,12.9,29.8,21.8c4.5,8.9,13.8,17.1,24,17.1l0,0l0,0h0l0,0
				c10.2,0,19.5-8.2,24-17.1c4.5-8.9,26.5,0.1,29.8-21.8C244,207.8,232.9,205.7,228.2,206.1z"/>
		</g>
	</g>
	<g>
		<g>
			<path class="st27" d="M228.2,202.1c-8.9,0.7-12.7,4.9-15.6-8.7c-2.9-13.6-25.4-13.4-25.4-13.4s-22.4-0.1-25.4,13.4
				c-2.9,13.6-6.7,9.4-15.6,8.7c-4.8-0.4-15.9,1.8-12.8,21.6c3.4,21.9,25.4,12.9,29.8,21.8c4.5,8.9,13.8,17.1,24,17.1l0,0l0,0h0l0,0
				c10.2,0,19.5-8.2,24-17.1c4.5-8.9,26.5,0.1,29.8-21.8C244,203.8,232.9,201.7,228.2,202.1z"/>
		</g>
		<g>
			<path class="st37" d="M187.1,255.5c-12.8,0-14.9-18.4-14.8-31.4c6-0.3,10.6-5.4,14.8-12.3c3.7,6,7.7,11.4,14.8,12.5
				C202,237.2,199.9,255.5,187.1,255.5z"/>
		</g>
		<g>
			<path class="st38" d="M204.2,225c-1.1,0-2.3-0.1-3.5-0.2c-13-1.4-14.9-16.9-15-17.1c-0.1-0.8,0.5-1.4,1.2-1.5
				c0.8-0.1,1.4,0.5,1.5,1.2c0.1,0.6,1.7,13.4,12.5,14.6c11.3,1.3,18.8-4,21.1-14.8c0.2-0.7,0.9-1.2,1.6-1.1
				c0.7,0.2,1.2,0.9,1.1,1.6C222.5,218.9,215,225,204.2,225z"/>
		</g>
		<g>
			<path class="st38" d="M170.1,225c-10.8,0-18.3-6.1-20.6-17.1c-0.2-0.7,0.3-1.5,1.1-1.6c0.7-0.2,1.5,0.3,1.6,1.1
				c2.3,10.8,9.8,16,21.1,14.8c10.8-1.2,12.4-14.1,12.5-14.6c0.1-0.8,0.8-1.3,1.5-1.2c0.8,0.1,1.3,0.8,1.2,1.5c0,0.2-2,15.6-15,17.1
				C172.4,225,171.2,225,170.1,225z"/>
		</g>
		<g>
			<defs>
				<path id="XMLID_42_" d="M203.4,194.6c0,5.4-6.9,16.4-16.2,16.4c-9.3,0-16.2-11-16.2-16.4s6.9-8.2,16.2-8.2
					C196.4,186.5,203.4,189.2,203.4,194.6z"/>
			</defs>
			<use xlink:href="#XMLID_42_"  style="overflow:visible;fill:#393C3D;"/>
			<clipPath id="XMLID_131_">
				<use xlink:href="#XMLID_42_"  style="overflow:visible;"/>
			</clipPath>
			<path style="opacity:0.55;clip-path:url(#XMLID_131_);fill:#1B1D1E;" d="M169.8,191.7c0,5.2,3.9,10,7.7,13.2
				c5.9,4.9,12.7,4.9,19.1,1c5.6-3.4,7.9-9.5,7.9-15.9c0-12.1,5.2,20.8,0,22.5c-5.2,1.7-26,8.7-29.5,3.5c-3.5-5.2-8.7-13.9-8.7-13.9
				L169.8,191.7z"/>
		</g>
	</g>
</g>
<g id="eye">
	<g id="XMLID_1752_">
		<circle id="XMLID_1775_" class="st131" cx="145.6" cy="175" r="23"/>
		<g id="XMLID_1767_">
			<circle id="XMLID_1774_" class="st143" cx="146" cy="175.4" r="11.8"/>
			<circle id="XMLID_1769_" class="st134" cx="146" cy="175.4" r="8.6"/>
			<circle id="XMLID_1768_" class="st48" cx="150.9" cy="167.7" r="3.1"/>
		</g>
	</g>
	<g id="XMLID_51_">
		<circle id="XMLID_56_" class="st131" cx="227.1" cy="175" r="23"/>
		<g id="XMLID_52_">
			<circle id="XMLID_55_" class="st143" cx="227.5" cy="175.4" r="11.8"/>
			<circle id="XMLID_54_" class="st134" cx="227.5" cy="175.4" r="8.6"/>
			<circle id="XMLID_53_" class="st48" cx="232.4" cy="167.7" r="3.1"/>
		</g>
	</g>
</g>
</svg>
